<svg width="34" height="34" viewBox="0 0 34 34" fill="none" xmlns="http://www.w3.org/2000/svg">
<path d="M16.9986 10.4508C15.2612 10.4508 13.5951 11.141 12.3666 12.3695C11.1381 13.5979 10.4479 15.2641 10.4479 17.0015C10.4479 18.7388 11.1381 20.405 12.3666 21.6335C13.5951 22.862 15.2612 23.5521 16.9986 23.5521C18.7359 23.5521 20.4021 22.862 21.6306 21.6335C22.8591 20.405 23.5492 18.7388 23.5492 17.0015C23.5492 15.2641 22.8591 13.5979 21.6306 12.3695C20.4021 11.141 18.7359 10.4508 16.9986 10.4508ZM16.9986 21.2557C15.8699 21.2557 14.7875 20.8074 13.9894 20.0093C13.1913 19.2112 12.7429 18.1287 12.7429 17.0001C12.7429 15.8714 13.1913 14.7889 13.9894 13.9908C14.7875 13.1928 15.8699 12.7444 16.9986 12.7444C18.1273 12.7444 19.2097 13.1928 20.0078 13.9908C20.8059 14.7889 21.2543 15.8714 21.2543 17.0001C21.2543 18.1287 20.8059 19.2112 20.0078 20.0093C19.2097 20.8074 18.1273 21.2557 16.9986 21.2557Z" fill="white"/>
<path d="M23.8085 11.7371C24.6519 11.7371 25.3357 11.0533 25.3357 10.2099C25.3357 9.36647 24.6519 8.68274 23.8085 8.68274C22.9651 8.68274 22.2813 9.36647 22.2813 10.2099C22.2813 11.0533 22.9651 11.7371 23.8085 11.7371Z" fill="white"/>
<path d="M29.0884 8.65725C28.7605 7.81034 28.2593 7.04123 27.617 6.39916C26.9747 5.7571 26.2054 5.25621 25.3583 4.92858C24.3671 4.5565 23.32 4.35531 22.2615 4.33358C20.8973 4.27408 20.4652 4.25708 17.0057 4.25708C13.5462 4.25708 13.1027 4.25708 11.7498 4.33358C10.6921 4.3542 9.64574 4.55543 8.65583 4.92858C7.80858 5.25583 7.03908 5.75658 6.39672 6.39869C5.75436 7.04081 5.25332 7.81011 4.92575 8.65725C4.5536 9.64836 4.35287 10.6956 4.33217 11.7541C4.27125 13.1169 4.25283 13.549 4.25283 17.0099C4.25283 20.4694 4.25283 20.91 4.33217 22.2657C4.35342 23.3254 4.55317 24.3709 4.92575 25.364C5.25424 26.2108 5.75577 26.9798 6.39828 27.6218C7.0408 28.2639 7.81017 28.7648 8.65725 29.0927C9.64528 29.4797 10.6921 29.6953 11.7527 29.7302C13.1169 29.7897 13.549 29.8081 17.0085 29.8081C20.468 29.8081 20.9114 29.8081 22.2643 29.7302C23.3227 29.7086 24.3698 29.5079 25.3612 29.1366C26.208 28.8082 26.9771 28.3069 27.6193 27.6646C28.2615 27.0224 28.7629 26.2533 29.0913 25.4065C29.4638 24.4148 29.6636 23.3693 29.6848 22.3097C29.7458 20.9468 29.7642 20.5147 29.7642 17.0538C29.7642 13.5929 29.7642 13.1537 29.6848 11.798C29.6683 10.7245 29.4666 9.66201 29.0884 8.65725ZM27.3629 22.1609C27.3538 22.9773 27.2048 23.7862 26.9223 24.5522C26.7096 25.1031 26.3839 25.6034 25.9662 26.0209C25.5485 26.4383 25.048 26.7637 24.497 26.9762C23.7394 27.2573 22.9392 27.4063 22.1312 27.4167C20.7853 27.4791 20.4057 27.4947 16.9547 27.4947C13.5008 27.4947 13.1481 27.4947 11.7768 27.4167C10.9691 27.4069 10.1693 27.2578 9.41233 26.9762C8.85939 26.7651 8.35692 26.4402 7.93743 26.0227C7.51794 25.6051 7.19077 25.1042 6.97708 24.5522C6.69863 23.7944 6.54969 22.9951 6.5365 22.1878C6.47558 20.842 6.46142 20.4623 6.46142 17.0113C6.46142 13.5589 6.46142 13.2062 6.5365 11.8334C6.54566 11.0174 6.69468 10.2091 6.97708 9.4435C7.40917 8.32575 8.29458 7.446 9.41233 7.01816C10.1697 6.73786 10.9693 6.58886 11.7768 6.57758C13.124 6.51666 13.5023 6.49966 16.9547 6.49966C20.4071 6.49966 20.7613 6.49966 22.1312 6.57758C22.9392 6.5873 23.7396 6.73635 24.497 7.01816C25.048 7.23105 25.5484 7.55678 25.966 7.97446C26.3837 8.39213 26.7094 8.89251 26.9223 9.4435C27.2008 10.2013 27.3497 11.0006 27.3629 11.8079C27.4238 13.1552 27.4394 13.5334 27.4394 16.9858C27.4394 20.4368 27.4394 20.808 27.3785 22.1623H27.3629V22.1609Z" fill="white"/>
</svg>
