<svg width="559" height="412" viewBox="0 0 559 412" fill="none" xmlns="http://www.w3.org/2000/svg">
<g clip-path="url(#clip0_3_978)">
<path d="M518.909 410.389C512.016 410.102 505.737 407.319 502.896 403.006C502.763 402.804 502.638 402.599 502.52 402.392C501.483 400.554 501.159 398.441 502.293 396.63C503.428 394.819 506.263 393.444 509.105 393.73C511.947 394.016 514.17 396.287 512.993 398.084C512.733 394.451 512.515 390.635 515.441 387.473C517.052 385.821 519.153 384.734 521.432 384.375C527.328 383.337 531.242 386.674 532.026 390.04C532.605 392.527 531.806 395.054 531.01 397.515C533.462 394.613 539.294 393.322 543.763 394.692C548.232 396.063 550.708 399.902 549.182 403.093C547.384 406.846 541.391 408.786 535.824 409.812C531.225 410.659 524.332 410.614 518.909 410.389Z" fill="#F2F2F2"/>
<path d="M40.6728 410.389C47.5653 410.102 53.845 407.319 56.6851 403.006C56.8183 402.804 56.9435 402.599 57.0606 402.392C58.0977 400.554 58.4218 398.441 57.2877 396.63C56.1535 394.819 53.3186 393.444 50.4764 393.73C47.6343 394.016 45.4103 396.287 46.588 398.084C46.8483 394.451 47.0663 390.635 44.1402 387.473C42.5296 385.821 40.4284 384.734 38.1501 384.375C32.2537 383.337 28.3393 386.674 27.5552 390.04C26.9767 392.527 27.7758 395.054 28.5715 397.515C26.1192 394.613 20.2872 393.322 15.8184 394.692C11.3496 396.063 8.87313 399.902 10.3996 403.093C12.1974 406.846 18.1907 408.786 23.7579 409.812C28.3562 410.659 35.2488 410.614 40.6728 410.389Z" fill="#F2F2F2"/>
<path d="M559 409.758H0V412H559V409.758Z" fill="#CCCCCC"/>
<path d="M225.394 70.4671C225.372 70.9183 225.385 71.3705 225.434 71.8196L194.454 97.8402L185.215 94.4924L178.344 107.786L198.543 117.408L232.412 79.3709C234.122 79.6813 235.886 79.4633 237.47 78.7459C239.053 78.0285 240.381 76.8457 241.276 75.3547C242.171 73.8638 242.592 72.1354 242.482 70.3993C242.372 68.6633 241.736 67.002 240.66 65.6363C239.583 64.2706 238.117 63.2652 236.455 62.7539C234.794 62.2426 233.017 62.2496 231.359 62.7739C229.702 63.2982 228.244 64.3151 227.178 65.6892C226.112 67.0633 225.49 68.7296 225.393 70.4664L225.394 70.4671Z" fill="#A0616A"/>
<path d="M183.844 114.163L153.927 103.353C152.567 102.862 151.317 102.108 150.249 101.133C149.18 100.158 148.314 98.9825 147.699 97.6727C147.085 96.3629 146.734 94.9448 146.667 93.4994C146.6 92.054 146.818 90.6095 147.309 89.2485C147.8 87.8874 148.554 86.6365 149.528 85.567C150.502 84.4976 151.677 83.6306 152.985 83.0156C155.629 81.7735 158.656 81.633 161.403 82.6251L191.319 93.4351C192.235 93.7656 192.981 94.4465 193.395 95.3281C193.809 96.2096 193.856 97.2194 193.525 98.1355L193.525 98.136L188.542 111.955C188.21 112.87 187.529 113.617 186.649 114.031C185.768 114.445 184.759 114.492 183.844 114.163L183.844 114.163Z" fill="#CCCCCC"/>
<path d="M161.934 219.446H171.932L176.688 180.849H161.933L161.934 219.446Z" fill="#A0616A"/>
<path d="M191.213 228.738L159.791 228.739L159.79 216.589L179.072 216.588C180.666 216.588 182.245 216.902 183.718 217.512C185.191 218.123 186.529 219.018 187.657 220.146C188.784 221.274 189.679 222.614 190.289 224.088C190.899 225.562 191.213 227.142 191.213 228.738Z" fill="#2F2E41"/>
<path d="M137.224 206.519L145.403 212.274L171.476 183.44L159.405 174.946L137.224 206.519Z" fill="#A0616A"/>
<path d="M154.851 229.001L129.146 210.918L136.127 200.979L151.9 212.075C153.205 212.993 154.315 214.158 155.17 215.505C156.024 216.852 156.604 218.355 156.878 219.926C157.152 221.498 157.114 223.109 156.766 224.666C156.418 226.223 155.767 227.696 154.851 229.001V229.001Z" fill="#2F2E41"/>
<path d="M183.811 149.92C183.811 149.92 208.763 146.974 204.284 163.178C199.805 179.381 149.903 193.376 149.903 193.376L183.811 149.92Z" fill="#A0616A"/>
<path d="M166.638 67.2365C177.7 67.2365 186.668 58.2614 186.668 47.1901C186.668 36.1187 177.7 27.1436 166.638 27.1436C155.575 27.1436 146.607 36.1187 146.607 47.1901C146.607 58.2614 155.575 67.2365 166.638 67.2365Z" fill="#A0616A"/>
<path d="M102.759 190.058C91.3614 176.774 87.3734 156.391 105.549 139.437C110.038 135.352 115.121 131.974 120.624 129.418L135.272 88.4161C136.793 84.1341 139.584 80.4183 143.27 77.7646C146.956 75.1108 151.364 73.6453 155.904 73.5636C160.312 73.3732 164.671 74.5533 168.381 76.9417C172.092 79.3301 174.973 82.8098 176.629 86.9027C178.418 91.0667 178.622 95.742 177.204 100.047C172.843 113.637 167.116 126.75 160.111 139.184L160.869 145.248L197.896 148.542L197.551 149.104C197.371 149.397 179.249 177.031 156.065 195.373C148.138 201.644 139.942 204.244 132.205 204.243C120.474 204.245 109.805 198.268 102.759 190.058Z" fill="#CCCCCC"/>
<path d="M99.2651 53.48C102.809 49.2537 104.329 43.7263 105.552 38.3461C107.486 29.8343 108.984 21.0327 113.282 13.4365C117.58 5.84024 125.479 -0.453598 134.188 0.025684C142.848 0.502361 149.848 7.47475 153.564 15.4076C154.464 15.0582 155.427 14.9016 156.391 14.9482C157.355 14.9947 158.298 15.2433 159.16 15.6779C161.838 17.1457 162.84 21.3179 160.61 23.407C162.955 22.2896 165.509 21.6787 168.105 21.614C170.701 21.5492 173.282 22.0321 175.679 23.0312C178.762 24.3448 181.423 26.484 183.37 29.2135C185.317 31.9429 186.473 35.1569 186.713 38.5018C186.806 39.8593 186.62 41.2215 186.166 42.5041C185.711 43.7867 184.999 44.9623 184.072 45.958C180.229 49.9173 174.794 48.5517 169.96 47.543C165.395 46.5903 159.835 46.3331 157.263 50.6863C156.25 52.5002 155.966 54.6327 156.47 56.6487C157.455 60.9941 160.67 64.0209 163.789 66.9181L164.299 67.8663C153.287 70.0152 141.265 62.4887 138.374 51.639C135.482 40.7894 142.174 28.2727 152.794 24.6534C152.087 24.6761 151.386 24.5094 150.765 24.1703C150.144 23.8313 149.625 23.3322 149.262 22.7249C148.898 22.1176 148.703 21.4241 148.697 20.7161C148.691 20.0081 148.875 19.3114 149.228 18.6981C146.289 17.0494 142.963 16.2177 139.595 16.2894C134.109 16.6495 129.362 20.5573 126.507 25.2596C123.652 29.9619 122.359 35.4183 121.05 40.7627C119.74 46.1071 118.323 51.5524 115.27 56.131C113.156 59.3004 110.331 61.9313 107.02 63.8138C103.709 65.6964 100.005 66.7784 96.202 66.9736C92.3993 67.1689 88.6035 66.4718 85.1177 64.9382C81.6319 63.4046 78.5525 61.0768 76.1253 58.1406C79.9611 60.0021 84.3007 60.5543 88.4799 59.7126C92.659 58.8708 96.4474 56.6816 99.2651 53.48Z" fill="#2F2E41"/>
<path d="M253.781 108.012C248.787 108.012 243.905 106.53 239.752 103.753C235.6 100.976 232.364 97.0296 230.452 92.412C228.541 87.7943 228.041 82.7132 229.016 77.8112C229.99 72.9091 232.395 68.4063 235.926 64.8721C239.457 61.3379 243.957 58.9311 248.855 57.956C253.753 56.981 258.83 57.4814 263.444 59.3941C268.057 61.3068 272.001 64.5458 274.776 68.7015C277.55 72.8573 279.031 77.7431 279.031 82.7412C279.023 89.4411 276.361 95.8644 271.627 100.602C266.893 105.339 260.475 108.004 253.781 108.012ZM253.781 61.6823C249.619 61.6823 245.551 62.9174 242.09 65.2314C238.63 67.5453 235.933 70.8343 234.341 74.6823C232.748 78.5304 232.331 82.7646 233.143 86.8497C233.955 90.9347 235.959 94.6871 238.902 97.6322C241.845 100.577 245.594 102.583 249.676 103.396C253.757 104.208 257.988 103.791 261.833 102.197C265.678 100.603 268.964 97.9041 271.276 94.441C273.589 90.9778 274.823 86.9063 274.823 82.7412C274.816 77.158 272.597 71.8052 268.653 67.8573C264.708 63.9093 259.359 61.6886 253.781 61.6823Z" fill="#6C63FF"/>
<path d="M252.952 51.1528C252.394 51.1527 251.859 50.9309 251.464 50.5359C251.07 50.141 250.848 49.6054 250.848 49.0469V24.829C250.848 24.2705 251.07 23.7349 251.464 23.3399C251.859 22.945 252.394 22.7231 252.952 22.7231C253.51 22.7231 254.045 22.945 254.44 23.3399C254.835 23.7349 255.056 24.2705 255.056 24.829V49.0469C255.056 49.6054 254.835 50.141 254.44 50.5359C254.045 50.9309 253.51 51.1527 252.952 51.1528Z" fill="#6C63FF"/>
<path d="M220.114 84.0182H195.915C195.357 84.0182 194.822 83.7963 194.428 83.4014C194.033 83.0065 193.811 82.4708 193.811 81.9123C193.811 81.3538 194.033 80.8181 194.428 80.4232C194.822 80.0283 195.357 79.8064 195.915 79.8064H220.114C220.672 79.8064 221.207 80.0283 221.602 80.4232C221.996 80.8181 222.218 81.3538 222.218 81.9123C222.218 82.4708 221.996 83.0065 221.602 83.4014C221.207 83.7963 220.672 84.0182 220.114 84.0182H220.114Z" fill="#6C63FF"/>
<path d="M308.49 84.0182H284.291C283.733 84.0182 283.198 83.7963 282.804 83.4014C282.409 83.0065 282.187 82.4708 282.187 81.9123C282.187 81.3538 282.409 80.8181 282.804 80.4232C283.198 80.0283 283.733 79.8064 284.291 79.8064H308.49C309.048 79.8064 309.583 80.0283 309.978 80.4232C310.372 80.8181 310.594 81.3538 310.594 81.9123C310.594 82.4708 310.372 83.0065 309.978 83.4014C309.583 83.7963 309.048 84.0182 308.49 84.0182Z" fill="#6C63FF"/>
<path d="M283.627 60.9923C283.208 60.9923 282.798 60.8672 282.451 60.633C282.104 60.3987 281.834 60.066 281.677 59.6775C281.519 59.289 281.481 58.8623 281.568 58.4521C281.654 58.0418 281.861 57.6668 282.162 57.3749L292.295 47.5353C292.493 47.3422 292.728 47.1901 292.985 47.0878C293.242 46.9854 293.516 46.9347 293.793 46.9387C294.07 46.9427 294.343 47.0012 294.597 47.1109C294.851 47.2206 295.081 47.3794 295.273 47.5781C295.466 47.7768 295.617 48.0116 295.719 48.269C295.821 48.5264 295.871 48.8014 295.867 49.0782C295.862 49.355 295.803 49.6282 295.693 49.8822C295.583 50.1362 295.424 50.366 295.225 50.5585L285.092 60.398C284.7 60.7799 284.174 60.9932 283.627 60.9923Z" fill="#6C63FF"/>
<path d="M221.83 60.9923C221.283 60.9931 220.758 60.7798 220.365 60.398L210.232 50.5585C210.033 50.366 209.874 50.1362 209.764 49.8822C209.654 49.6282 209.595 49.355 209.59 49.0782C209.586 48.8014 209.636 48.5264 209.738 48.269C209.84 48.0116 209.991 47.7768 210.184 47.5781C210.377 47.3794 210.606 47.2206 210.86 47.1109C211.114 47.0012 211.388 46.9427 211.664 46.9387C211.941 46.9347 212.215 46.9854 212.472 47.0878C212.729 47.1901 212.964 47.3422 213.162 47.5353L223.296 57.3749C223.596 57.6668 223.803 58.0418 223.889 58.4521C223.976 58.8623 223.938 59.289 223.781 59.6775C223.623 60.066 223.354 60.3987 223.006 60.633C222.659 60.8672 222.249 60.9923 221.83 60.9923Z" fill="#6C63FF"/>
<path d="M213.801 118.541C213.388 118.541 212.983 118.419 212.639 118.191C212.294 117.962 212.024 117.637 211.863 117.255C211.702 116.874 211.657 116.454 211.733 116.047C211.809 115.641 212.003 115.265 212.291 114.968L222.425 104.524C222.814 104.124 223.346 103.895 223.903 103.887C224.461 103.879 224.999 104.093 225.4 104.482C225.8 104.871 226.029 105.403 226.038 105.961C226.046 106.519 225.833 107.058 225.445 107.459L215.311 117.903C215.115 118.105 214.88 118.266 214.621 118.376C214.361 118.485 214.083 118.542 213.801 118.541Z" fill="#6C63FF"/>
<path d="M295.865 120.647C295.584 120.648 295.306 120.592 295.047 120.483C294.788 120.374 294.554 120.213 294.359 120.012L282.121 107.462C281.928 107.264 281.775 107.03 281.672 106.773C281.569 106.516 281.518 106.242 281.521 105.965C281.524 105.688 281.582 105.415 281.691 105.16C281.799 104.906 281.957 104.676 282.155 104.482C282.353 104.289 282.587 104.137 282.844 104.034C283.101 103.931 283.375 103.88 283.652 103.884C283.928 103.888 284.201 103.946 284.456 104.055C284.71 104.164 284.94 104.323 285.132 104.521L297.37 117.071C297.659 117.368 297.855 117.743 297.932 118.15C298.009 118.557 297.965 118.978 297.804 119.36C297.643 119.741 297.373 120.067 297.028 120.296C296.683 120.525 296.279 120.648 295.865 120.647Z" fill="#6C63FF"/>
<path d="M252.952 141.706C252.394 141.706 251.859 141.484 251.464 141.089C251.07 140.694 250.848 140.159 250.848 139.6V115.383C250.848 115.106 250.902 114.832 251.008 114.577C251.114 114.321 251.269 114.089 251.464 113.893C251.66 113.698 251.892 113.543 252.147 113.437C252.402 113.331 252.676 113.277 252.952 113.277C253.228 113.277 253.502 113.331 253.757 113.437C254.013 113.543 254.245 113.698 254.44 113.893C254.635 114.089 254.79 114.321 254.896 114.577C255.002 114.832 255.056 115.106 255.056 115.383V139.6C255.056 140.159 254.835 140.694 254.44 141.089C254.045 141.484 253.51 141.706 252.952 141.706Z" fill="#6C63FF"/>
<path d="M226.398 98.4629C226.186 98.8619 226.007 99.2769 225.86 99.7041L186.766 110.08L179.825 103.119L167.96 112.229L182.157 129.531L228.969 109.508C230.385 110.516 232.074 111.07 233.812 111.094C235.55 111.118 237.254 110.612 238.698 109.643C240.141 108.675 241.256 107.289 241.894 105.671C242.531 104.053 242.662 102.278 242.267 100.584C241.873 98.8901 240.973 97.3563 239.686 96.1868C238.399 95.0173 236.787 94.2675 235.065 94.0371C233.342 93.8068 231.59 94.1068 230.041 94.8972C228.493 95.6877 227.222 96.9312 226.397 98.4623L226.398 98.4629Z" fill="#A0616A"/>
<path d="M170.229 120.34L147.74 97.8298C146.717 96.8068 145.905 95.5921 145.351 94.255C144.797 92.918 144.512 91.4848 144.512 90.0374C144.511 88.59 144.796 87.1567 145.349 85.8195C145.903 84.4822 146.714 83.2671 147.736 82.2436C148.759 81.2201 149.973 80.4084 151.309 79.8546C152.646 79.3009 154.078 79.016 155.524 79.0164C156.97 79.0167 158.402 79.3022 159.738 79.8566C161.074 80.4109 162.288 81.2233 163.31 82.2472L185.8 104.756C186.489 105.444 186.875 106.378 186.876 107.352C186.876 108.326 186.489 109.26 185.801 109.949L185.8 109.95L175.42 120.339C174.731 121.027 173.798 121.413 172.825 121.413C171.852 121.413 170.919 121.027 170.23 120.339L170.229 120.34Z" fill="#CCCCCC"/>
<path d="M408.574 411.658H175.58C125.314 411.658 84.4206 370.043 84.4206 318.89C84.4206 267.738 125.314 226.122 175.58 226.122H192.156C201.275 207.514 215.327 191.77 232.778 180.611C250.485 169.281 271.061 163.257 292.077 163.25C350.372 163.25 398.962 209.129 403.484 268.037H408.574C447.522 268.037 479.209 300.251 479.209 339.847C479.209 379.444 447.522 411.658 408.574 411.658ZM175.58 230.029C127.467 230.029 88.3247 269.892 88.3247 318.89C88.3247 367.888 127.467 407.751 175.58 407.751H408.574C445.369 407.751 475.305 377.29 475.305 339.847C475.305 302.405 445.369 271.944 408.574 271.944H399.825L399.714 270.109C396.196 212.379 348.917 167.158 292.077 167.158C251.147 167.158 213.096 191.401 195.138 228.919L194.607 230.029H175.58Z" fill="#3F3D56"/>
</g>
<defs>
<clipPath id="clip0_3_978">
<rect width="559" height="412" fill="white"/>
</clipPath>
</defs>
</svg>
