<svg width="222" height="42" viewBox="0 0 222 42" fill="none" xmlns="http://www.w3.org/2000/svg">
<path d="M5 24V28.9982C6.70833 28.997 8.40013 29.3327 9.97859 29.9859C11.5571 30.6391 12.9912 31.597 14.199 32.805C15.4064 34.0125 16.364 35.4461 17.017 37.0238C17.6699 38.6016 18.0054 40.2925 18.0043 42H23C22.9955 37.2281 21.0977 32.6529 17.7232 29.2783C14.3486 25.9037 9.77284 24.0055 5 24H5Z" fill="white"/>
<path d="M30.967 0H23C27.0303 2.55445 30.4453 5.96947 33 10V2.0319C32.9996 1.49287 32.404 0.595042 32.404 0.595042C32.0228 0.214028 31.5059 -1.33378e-07 30.967 0Z" fill="white"/>
<path d="M5.15789 2H0V6.50047C6.18635 6.50668 12.1175 8.87913 16.492 13.0972C20.8664 17.3154 23.3269 23.0346 23.3336 29H28V24.0263C26.9449 18.5599 24.1979 13.5297 20.1206 9.59801C16.0432 5.6663 10.8268 3.01738 5.15789 2Z" fill="white"/>
<path d="M58.3416 29.2876C56.8267 29.2876 55.5227 28.9808 54.4297 28.3672C53.343 27.7472 52.5057 26.8714 51.9176 25.7401C51.3295 24.6023 51.0355 23.2567 51.0355 21.7035C51.0355 20.1886 51.3295 18.859 51.9176 17.7148C52.5057 16.5707 53.3335 15.679 54.4009 15.0398C55.4748 14.4006 56.734 14.081 58.1786 14.081C59.1502 14.081 60.0547 14.2376 60.892 14.5508C61.7358 14.8576 62.4709 15.321 63.0973 15.9411C63.7301 16.5611 64.2223 17.3409 64.5739 18.2805C64.9254 19.2138 65.1012 20.3068 65.1012 21.5597V22.6815H52.6655V20.1502H61.2564C61.2564 19.5621 61.1286 19.0412 60.8729 18.5874C60.6172 18.1335 60.2624 17.7788 59.8086 17.5231C59.3612 17.261 58.8402 17.13 58.2457 17.13C57.6257 17.13 57.076 17.2738 56.5966 17.5614C56.1236 17.8427 55.7528 18.223 55.4844 18.7024C55.2159 19.1754 55.0785 19.7028 55.0721 20.2844V22.6911C55.0721 23.4197 55.2063 24.0494 55.4748 24.5799C55.7496 25.1104 56.1364 25.5195 56.6349 25.8072C57.1335 26.0948 57.7248 26.2386 58.4087 26.2386C58.8626 26.2386 59.2781 26.1747 59.6552 26.0469C60.0323 25.919 60.3551 25.7273 60.6236 25.4716C60.892 25.2159 61.0966 24.9027 61.2372 24.532L65.0149 24.7812C64.8232 25.6889 64.43 26.4815 63.8356 27.1591C63.2475 27.8303 62.4869 28.3544 61.5536 28.7315C60.6268 29.1023 59.5561 29.2876 58.3416 29.2876ZM67.7667 29V14.2727H71.7266V16.8423H71.88C72.1484 15.9283 72.5991 15.2379 73.2319 14.7713C73.8647 14.2983 74.5934 14.0618 75.418 14.0618C75.6225 14.0618 75.843 14.0746 76.0795 14.1001C76.3161 14.1257 76.5238 14.1609 76.7028 14.2056V17.8299C76.511 17.7724 76.2457 17.7212 75.907 17.6765C75.5682 17.6317 75.2582 17.6094 74.9769 17.6094C74.3761 17.6094 73.8391 17.7404 73.3661 18.0025C72.8995 18.2582 72.5288 18.6161 72.2539 19.0763C71.9854 19.5366 71.8512 20.0671 71.8512 20.668V29H67.7667ZM81.957 29L77.9492 14.2727H82.0817L84.3636 24.1676H84.4979L86.8757 14.2727H90.9315L93.3477 24.1101H93.4723L95.7159 14.2727H99.8388L95.8406 29H91.5163L88.9851 19.7379H88.8029L86.2717 29H81.957ZM102.018 29V14.2727H106.102V29H102.018ZM104.07 12.3743C103.462 12.3743 102.941 12.1729 102.507 11.7702C102.078 11.3611 101.864 10.8722 101.864 10.3033C101.864 9.74077 102.078 9.25817 102.507 8.85547C102.941 8.44638 103.462 8.24183 104.07 8.24183C104.677 8.24183 105.195 8.44638 105.623 8.85547C106.057 9.25817 106.275 9.74077 106.275 10.3033C106.275 10.8722 106.057 11.3611 105.623 11.7702C105.195 12.1729 104.677 12.3743 104.07 12.3743ZM113.459 20.4858V29H109.374V14.2727H113.267V16.8711H113.439C113.765 16.0146 114.312 15.337 115.079 14.8384C115.846 14.3335 116.776 14.081 117.869 14.081C118.892 14.081 119.784 14.3047 120.544 14.7521C121.305 15.1996 121.896 15.8388 122.318 16.6697C122.74 17.4943 122.951 18.4787 122.951 19.6229V29H118.866V20.3516C118.873 19.4503 118.643 18.7472 118.176 18.2422C117.709 17.7308 117.067 17.4751 116.249 17.4751C115.699 17.4751 115.213 17.5934 114.791 17.8299C114.376 18.0664 114.05 18.4116 113.813 18.8654C113.583 19.3129 113.465 19.853 113.459 20.4858ZM138.424 18.4723L134.684 18.7024C134.62 18.3828 134.483 18.0952 134.272 17.8395C134.061 17.5774 133.783 17.3697 133.438 17.2163C133.099 17.0565 132.693 16.9766 132.22 16.9766C131.587 16.9766 131.054 17.1108 130.619 17.3793C130.184 17.6413 129.967 17.9929 129.967 18.4339C129.967 18.7855 130.108 19.0827 130.389 19.3256C130.67 19.5685 131.153 19.7635 131.837 19.9105L134.502 20.4474C135.934 20.7415 137.001 21.2145 137.704 21.8665C138.408 22.5185 138.759 23.375 138.759 24.4361C138.759 25.4013 138.475 26.2482 137.906 26.9769C137.343 27.7056 136.57 28.2745 135.585 28.6836C134.608 29.0863 133.479 29.2876 132.201 29.2876C130.251 29.2876 128.698 28.8817 127.541 28.07C126.391 27.2518 125.716 26.1396 125.518 24.7333L129.535 24.5224C129.657 25.1168 129.951 25.5707 130.418 25.8839C130.884 26.1907 131.482 26.3441 132.21 26.3441C132.926 26.3441 133.502 26.2067 133.936 25.9318C134.377 25.6506 134.601 25.2894 134.608 24.8484C134.601 24.4776 134.445 24.174 134.138 23.9375C133.831 23.6946 133.358 23.5092 132.719 23.3814L130.168 22.8732C128.73 22.5856 127.659 22.087 126.956 21.3775C126.259 20.668 125.911 19.7635 125.911 18.6641C125.911 17.718 126.167 16.9031 126.678 16.2191C127.196 15.5352 127.921 15.0078 128.855 14.6371C129.794 14.2663 130.894 14.081 132.153 14.081C134.013 14.081 135.477 14.4741 136.544 15.2603C137.618 16.0465 138.245 17.1172 138.424 18.4723ZM143.853 34.5227C143.335 34.5227 142.849 34.4812 142.395 34.3981C141.948 34.3214 141.577 34.2223 141.283 34.1009L142.204 31.0518C142.683 31.1989 143.115 31.2788 143.498 31.2915C143.888 31.3043 144.224 31.2148 144.505 31.0231C144.792 30.8313 145.026 30.5053 145.205 30.0451L145.444 29.4219L140.161 14.2727H144.457L147.506 25.0881H147.659L150.737 14.2727H155.061L149.337 30.5916C149.062 31.3842 148.688 32.0746 148.215 32.6626C147.749 33.2571 147.157 33.7141 146.442 34.0337C145.726 34.3597 144.863 34.5227 143.853 34.5227ZM169.405 18.4723L165.666 18.7024C165.602 18.3828 165.464 18.0952 165.253 17.8395C165.042 17.5774 164.764 17.3697 164.419 17.2163C164.08 17.0565 163.675 16.9766 163.202 16.9766C162.569 16.9766 162.035 17.1108 161.6 17.3793C161.166 17.6413 160.948 17.9929 160.948 18.4339C160.948 18.7855 161.089 19.0827 161.37 19.3256C161.651 19.5685 162.134 19.7635 162.818 19.9105L165.483 20.4474C166.915 20.7415 167.983 21.2145 168.686 21.8665C169.389 22.5185 169.741 23.375 169.741 24.4361C169.741 25.4013 169.456 26.2482 168.887 26.9769C168.325 27.7056 167.551 28.2745 166.567 28.6836C165.589 29.0863 164.461 29.2876 163.182 29.2876C161.233 29.2876 159.68 28.8817 158.523 28.07C157.372 27.2518 156.698 26.1396 156.499 24.7333L160.517 24.5224C160.638 25.1168 160.932 25.5707 161.399 25.8839C161.866 26.1907 162.463 26.3441 163.192 26.3441C163.908 26.3441 164.483 26.2067 164.918 25.9318C165.359 25.6506 165.583 25.2894 165.589 24.8484C165.583 24.4776 165.426 24.174 165.119 23.9375C164.812 23.6946 164.339 23.5092 163.7 23.3814L161.15 22.8732C159.711 22.5856 158.641 22.087 157.938 21.3775C157.241 20.668 156.893 19.7635 156.893 18.6641C156.893 17.718 157.148 16.9031 157.66 16.2191C158.177 15.5352 158.903 15.0078 159.836 14.6371C160.776 14.2663 161.875 14.081 163.134 14.081C164.994 14.081 166.458 14.4741 167.526 15.2603C168.6 16.0465 169.226 17.1172 169.405 18.4723ZM180.146 14.2727V17.3409H171.277V14.2727H180.146ZM173.291 10.7443H177.375V24.4744C177.375 24.8516 177.433 25.1456 177.548 25.3565C177.663 25.5611 177.823 25.7049 178.027 25.788C178.238 25.8711 178.481 25.9126 178.756 25.9126C178.948 25.9126 179.139 25.8967 179.331 25.8647C179.523 25.8263 179.67 25.7976 179.772 25.7784L180.415 28.8178C180.21 28.8817 179.922 28.9553 179.552 29.0384C179.181 29.1278 178.73 29.1822 178.2 29.2013C177.215 29.2397 176.352 29.1087 175.611 28.8082C174.876 28.5078 174.304 28.0412 173.895 27.4084C173.486 26.7756 173.284 25.9766 173.291 25.0114V10.7443ZM189.36 29.2876C187.845 29.2876 186.541 28.9808 185.448 28.3672C184.362 27.7472 183.524 26.8714 182.936 25.7401C182.348 24.6023 182.054 23.2567 182.054 21.7035C182.054 20.1886 182.348 18.859 182.936 17.7148C183.524 16.5707 184.352 15.679 185.419 15.0398C186.493 14.4006 187.753 14.081 189.197 14.081C190.169 14.081 191.073 14.2376 191.911 14.5508C192.754 14.8576 193.489 15.321 194.116 15.9411C194.749 16.5611 195.241 17.3409 195.592 18.2805C195.944 19.2138 196.12 20.3068 196.12 21.5597V22.6815H183.684V20.1502H192.275C192.275 19.5621 192.147 19.0412 191.891 18.5874C191.636 18.1335 191.281 17.7788 190.827 17.5231C190.38 17.261 189.859 17.13 189.264 17.13C188.644 17.13 188.095 17.2738 187.615 17.5614C187.142 17.8427 186.771 18.223 186.503 18.7024C186.234 19.1754 186.097 19.7028 186.091 20.2844V22.6911C186.091 23.4197 186.225 24.0494 186.493 24.5799C186.768 25.1104 187.155 25.5195 187.653 25.8072C188.152 26.0948 188.743 26.2386 189.427 26.2386C189.881 26.2386 190.297 26.1747 190.674 26.0469C191.051 25.919 191.374 25.7273 191.642 25.4716C191.911 25.2159 192.115 24.9027 192.256 24.532L196.033 24.7812C195.842 25.6889 195.449 26.4815 194.854 27.1591C194.266 27.8303 193.505 28.3544 192.572 28.7315C191.645 29.1023 190.575 29.2876 189.36 29.2876ZM198.785 29V14.2727H202.678V16.8711H202.851C203.157 16.0082 203.669 15.3274 204.385 14.8288C205.101 14.3303 205.957 14.081 206.954 14.081C207.964 14.081 208.824 14.3335 209.533 14.8384C210.243 15.337 210.716 16.0146 210.953 16.8711H211.106C211.406 16.0273 211.95 15.353 212.736 14.848C213.528 14.3366 214.465 14.081 215.545 14.081C216.919 14.081 218.035 14.5188 218.891 15.3945C219.754 16.2638 220.186 17.4975 220.186 19.0955V29H216.111V19.9009C216.111 19.0827 215.894 18.4691 215.459 18.06C215.024 17.6509 214.481 17.4464 213.829 17.4464C213.087 17.4464 212.509 17.6829 212.093 18.1559C211.678 18.6225 211.47 19.2393 211.47 20.0064V29H207.51V19.8146C207.51 19.0923 207.303 18.517 206.887 18.0888C206.478 17.6605 205.938 17.4464 205.267 17.4464C204.813 17.4464 204.404 17.5614 204.04 17.7915C203.682 18.0153 203.397 18.3317 203.186 18.7408C202.975 19.1435 202.87 19.6165 202.87 20.1598V29H198.785Z" fill="white"/>
</svg>
