<svg width="246" height="52" viewBox="0 0 246 52" fill="none" xmlns="http://www.w3.org/2000/svg">
<path d="M29 24V28.9982C30.7083 28.997 32.4001 29.3327 33.9786 29.9859C35.5571 30.6391 36.9912 31.597 38.199 32.805C39.4064 34.0125 40.364 35.4461 41.017 37.0238C41.6699 38.6016 42.0054 40.2925 42.0043 42H47C46.9955 37.2281 45.0977 32.6529 41.7232 29.2783C38.3486 25.9037 33.7728 24.0055 29 24H29Z" fill="#000AFF"/>
<path d="M54.967 0H47C51.0303 2.55445 54.4453 5.96947 57 10V2.0319C56.9996 1.49287 56.404 0.595042 56.404 0.595042C56.0228 0.214028 55.5059 -1.33378e-07 54.967 0Z" fill="#000AFF"/>
<path d="M29.1579 2H24V6.50047C30.1863 6.50668 36.1175 8.87913 40.492 13.0972C44.8664 17.3154 47.3269 23.0346 47.3336 29H52V24.0263C50.9449 18.5599 48.1979 13.5297 44.1206 9.59801C40.0432 5.6663 34.8268 3.01738 29.1579 2Z" fill="#000AFF"/>
<path d="M82.3416 29.2876C80.8267 29.2876 79.5227 28.9808 78.4297 28.3672C77.343 27.7472 76.5057 26.8714 75.9176 25.7401C75.3295 24.6023 75.0355 23.2567 75.0355 21.7035C75.0355 20.1886 75.3295 18.859 75.9176 17.7148C76.5057 16.5707 77.3335 15.679 78.4009 15.0398C79.4748 14.4006 80.734 14.081 82.1786 14.081C83.1502 14.081 84.0547 14.2376 84.892 14.5508C85.7358 14.8576 86.4709 15.321 87.0973 15.9411C87.7301 16.5611 88.2223 17.3409 88.5739 18.2805C88.9254 19.2138 89.1012 20.3068 89.1012 21.5597V22.6815H76.6655V20.1502H85.2564C85.2564 19.5621 85.1286 19.0412 84.8729 18.5874C84.6172 18.1335 84.2624 17.7788 83.8086 17.5231C83.3612 17.261 82.8402 17.13 82.2457 17.13C81.6257 17.13 81.076 17.2738 80.5966 17.5614C80.1236 17.8427 79.7528 18.223 79.4844 18.7024C79.2159 19.1754 79.0785 19.7028 79.0721 20.2844V22.6911C79.0721 23.4197 79.2063 24.0494 79.4748 24.5799C79.7496 25.1104 80.1364 25.5195 80.6349 25.8072C81.1335 26.0948 81.7248 26.2386 82.4087 26.2386C82.8626 26.2386 83.2781 26.1747 83.6552 26.0469C84.0323 25.919 84.3551 25.7273 84.6236 25.4716C84.892 25.2159 85.0966 24.9027 85.2372 24.532L89.0149 24.7812C88.8232 25.6889 88.43 26.4815 87.8356 27.1591C87.2475 27.8303 86.4869 28.3544 85.5536 28.7315C84.6268 29.1023 83.5561 29.2876 82.3416 29.2876ZM91.7667 29V14.2727H95.7266V16.8423H95.88C96.1484 15.9283 96.5991 15.2379 97.2319 14.7713C97.8647 14.2983 98.5934 14.0618 99.418 14.0618C99.6225 14.0618 99.843 14.0746 100.08 14.1001C100.316 14.1257 100.524 14.1609 100.703 14.2056V17.8299C100.511 17.7724 100.246 17.7212 99.907 17.6765C99.5682 17.6317 99.2582 17.6094 98.9769 17.6094C98.3761 17.6094 97.8391 17.7404 97.3661 18.0025C96.8995 18.2582 96.5288 18.6161 96.2539 19.0763C95.9854 19.5366 95.8512 20.0671 95.8512 20.668V29H91.7667ZM105.957 29L101.949 14.2727H106.082L108.364 24.1676H108.498L110.876 14.2727H114.931L117.348 24.1101H117.472L119.716 14.2727H123.839L119.841 29H115.516L112.985 19.7379H112.803L110.272 29H105.957ZM126.018 29V14.2727H130.102V29H126.018ZM128.07 12.3743C127.462 12.3743 126.941 12.1729 126.507 11.7702C126.078 11.3611 125.864 10.8722 125.864 10.3033C125.864 9.74077 126.078 9.25817 126.507 8.85547C126.941 8.44638 127.462 8.24183 128.07 8.24183C128.677 8.24183 129.195 8.44638 129.623 8.85547C130.057 9.25817 130.275 9.74077 130.275 10.3033C130.275 10.8722 130.057 11.3611 129.623 11.7702C129.195 12.1729 128.677 12.3743 128.07 12.3743ZM137.459 20.4858V29H133.374V14.2727H137.267V16.8711H137.439C137.765 16.0146 138.312 15.337 139.079 14.8384C139.846 14.3335 140.776 14.081 141.869 14.081C142.892 14.081 143.784 14.3047 144.544 14.7521C145.305 15.1996 145.896 15.8388 146.318 16.6697C146.74 17.4943 146.951 18.4787 146.951 19.6229V29H142.866V20.3516C142.873 19.4503 142.643 18.7472 142.176 18.2422C141.709 17.7308 141.067 17.4751 140.249 17.4751C139.699 17.4751 139.213 17.5934 138.791 17.8299C138.376 18.0664 138.05 18.4116 137.813 18.8654C137.583 19.3129 137.465 19.853 137.459 20.4858Z" fill="#000AFF"/>
<path d="M162.424 18.4723L158.684 18.7024C158.62 18.3828 158.483 18.0952 158.272 17.8395C158.061 17.5774 157.783 17.3697 157.438 17.2163C157.099 17.0565 156.693 16.9766 156.22 16.9766C155.587 16.9766 155.054 17.1108 154.619 17.3793C154.184 17.6413 153.967 17.9929 153.967 18.4339C153.967 18.7855 154.108 19.0827 154.389 19.3256C154.67 19.5685 155.153 19.7635 155.837 19.9105L158.502 20.4474C159.934 20.7415 161.001 21.2145 161.704 21.8665C162.408 22.5185 162.759 23.375 162.759 24.4361C162.759 25.4013 162.475 26.2482 161.906 26.9769C161.343 27.7056 160.57 28.2745 159.585 28.6836C158.608 29.0863 157.479 29.2876 156.201 29.2876C154.251 29.2876 152.698 28.8817 151.541 28.07C150.391 27.2518 149.716 26.1396 149.518 24.7333L153.535 24.5224C153.657 25.1168 153.951 25.5707 154.418 25.8839C154.884 26.1907 155.482 26.3441 156.21 26.3441C156.926 26.3441 157.502 26.2067 157.936 25.9318C158.377 25.6506 158.601 25.2894 158.608 24.8484C158.601 24.4776 158.445 24.174 158.138 23.9375C157.831 23.6946 157.358 23.5092 156.719 23.3814L154.168 22.8732C152.73 22.5856 151.659 22.087 150.956 21.3775C150.259 20.668 149.911 19.7635 149.911 18.6641C149.911 17.718 150.167 16.9031 150.678 16.2191C151.196 15.5352 151.921 15.0078 152.855 14.6371C153.794 14.2663 154.894 14.081 156.153 14.081C158.013 14.081 159.477 14.4741 160.544 15.2603C161.618 16.0465 162.245 17.1172 162.424 18.4723ZM167.853 34.5227C167.335 34.5227 166.849 34.4812 166.395 34.3981C165.948 34.3214 165.577 34.2223 165.283 34.1009L166.204 31.0518C166.683 31.1989 167.115 31.2788 167.498 31.2915C167.888 31.3043 168.224 31.2148 168.505 31.0231C168.792 30.8313 169.026 30.5053 169.205 30.0451L169.444 29.4219L164.161 14.2727H168.457L171.506 25.0881H171.659L174.737 14.2727H179.061L173.337 30.5916C173.062 31.3842 172.688 32.0746 172.215 32.6626C171.749 33.2571 171.157 33.7141 170.442 34.0337C169.726 34.3597 168.863 34.5227 167.853 34.5227ZM193.405 18.4723L189.666 18.7024C189.602 18.3828 189.464 18.0952 189.253 17.8395C189.042 17.5774 188.764 17.3697 188.419 17.2163C188.08 17.0565 187.675 16.9766 187.202 16.9766C186.569 16.9766 186.035 17.1108 185.6 17.3793C185.166 17.6413 184.948 17.9929 184.948 18.4339C184.948 18.7855 185.089 19.0827 185.37 19.3256C185.651 19.5685 186.134 19.7635 186.818 19.9105L189.483 20.4474C190.915 20.7415 191.983 21.2145 192.686 21.8665C193.389 22.5185 193.741 23.375 193.741 24.4361C193.741 25.4013 193.456 26.2482 192.887 26.9769C192.325 27.7056 191.551 28.2745 190.567 28.6836C189.589 29.0863 188.461 29.2876 187.182 29.2876C185.233 29.2876 183.68 28.8817 182.523 28.07C181.372 27.2518 180.698 26.1396 180.499 24.7333L184.517 24.5224C184.638 25.1168 184.932 25.5707 185.399 25.8839C185.866 26.1907 186.463 26.3441 187.192 26.3441C187.908 26.3441 188.483 26.2067 188.918 25.9318C189.359 25.6506 189.583 25.2894 189.589 24.8484C189.583 24.4776 189.426 24.174 189.119 23.9375C188.812 23.6946 188.339 23.5092 187.7 23.3814L185.15 22.8732C183.711 22.5856 182.641 22.087 181.938 21.3775C181.241 20.668 180.893 19.7635 180.893 18.6641C180.893 17.718 181.148 16.9031 181.66 16.2191C182.177 15.5352 182.903 15.0078 183.836 14.6371C184.776 14.2663 185.875 14.081 187.134 14.081C188.994 14.081 190.458 14.4741 191.526 15.2603C192.6 16.0465 193.226 17.1172 193.405 18.4723ZM204.146 14.2727V17.3409H195.277V14.2727H204.146ZM197.291 10.7443H201.375V24.4744C201.375 24.8516 201.433 25.1456 201.548 25.3565C201.663 25.5611 201.823 25.7049 202.027 25.788C202.238 25.8711 202.481 25.9126 202.756 25.9126C202.948 25.9126 203.139 25.8967 203.331 25.8647C203.523 25.8263 203.67 25.7976 203.772 25.7784L204.415 28.8178C204.21 28.8817 203.922 28.9553 203.552 29.0384C203.181 29.1278 202.73 29.1822 202.2 29.2013C201.215 29.2397 200.352 29.1087 199.611 28.8082C198.876 28.5078 198.304 28.0412 197.895 27.4084C197.486 26.7756 197.284 25.9766 197.291 25.0114V10.7443ZM213.36 29.2876C211.845 29.2876 210.541 28.9808 209.448 28.3672C208.362 27.7472 207.524 26.8714 206.936 25.7401C206.348 24.6023 206.054 23.2567 206.054 21.7035C206.054 20.1886 206.348 18.859 206.936 17.7148C207.524 16.5707 208.352 15.679 209.419 15.0398C210.493 14.4006 211.753 14.081 213.197 14.081C214.169 14.081 215.073 14.2376 215.911 14.5508C216.754 14.8576 217.489 15.321 218.116 15.9411C218.749 16.5611 219.241 17.3409 219.592 18.2805C219.944 19.2138 220.12 20.3068 220.12 21.5597V22.6815H207.684V20.1502H216.275C216.275 19.5621 216.147 19.0412 215.891 18.5874C215.636 18.1335 215.281 17.7788 214.827 17.5231C214.38 17.261 213.859 17.13 213.264 17.13C212.644 17.13 212.095 17.2738 211.615 17.5614C211.142 17.8427 210.771 18.223 210.503 18.7024C210.234 19.1754 210.097 19.7028 210.091 20.2844V22.6911C210.091 23.4197 210.225 24.0494 210.493 24.5799C210.768 25.1104 211.155 25.5195 211.653 25.8072C212.152 26.0948 212.743 26.2386 213.427 26.2386C213.881 26.2386 214.297 26.1747 214.674 26.0469C215.051 25.919 215.374 25.7273 215.642 25.4716C215.911 25.2159 216.115 24.9027 216.256 24.532L220.033 24.7812C219.842 25.6889 219.449 26.4815 218.854 27.1591C218.266 27.8303 217.505 28.3544 216.572 28.7315C215.645 29.1023 214.575 29.2876 213.36 29.2876ZM222.785 29V14.2727H226.678V16.8711H226.851C227.157 16.0082 227.669 15.3274 228.385 14.8288C229.101 14.3303 229.957 14.081 230.954 14.081C231.964 14.081 232.824 14.3335 233.533 14.8384C234.243 15.337 234.716 16.0146 234.953 16.8711H235.106C235.406 16.0273 235.95 15.353 236.736 14.848C237.528 14.3366 238.465 14.081 239.545 14.081C240.919 14.081 242.035 14.5188 242.891 15.3945C243.754 16.2638 244.186 17.4975 244.186 19.0955V29H240.111V19.9009C240.111 19.0827 239.894 18.4691 239.459 18.06C239.024 17.6509 238.481 17.4464 237.829 17.4464C237.087 17.4464 236.509 17.6829 236.093 18.1559C235.678 18.6225 235.47 19.2393 235.47 20.0064V29H231.51V19.8146C231.51 19.0923 231.303 18.517 230.887 18.0888C230.478 17.6605 229.938 17.4464 229.267 17.4464C228.813 17.4464 228.404 17.5614 228.04 17.7915C227.682 18.0153 227.397 18.3317 227.186 18.7408C226.975 19.1435 226.87 19.6165 226.87 20.1598V29H222.785Z" fill="#131316"/>
</svg>
