<svg width="621" height="405" viewBox="0 0 621 405" fill="none" xmlns="http://www.w3.org/2000/svg">
<g clip-path="url(#clip0_4_417)">
<path d="M620.04 354.296H361.699C361.444 354.296 361.2 354.195 361.019 354.015C360.839 353.835 360.738 353.591 360.738 353.336C360.738 353.082 360.839 352.838 361.019 352.658C361.2 352.477 361.444 352.376 361.699 352.376H620.04C620.294 352.376 620.539 352.477 620.719 352.658C620.899 352.838 621 353.082 621 353.336C621 353.591 620.899 353.835 620.719 354.015C620.539 354.195 620.294 354.296 620.04 354.296Z" fill="#3F3D56"/>
<path d="M492.817 237.06C507.517 237.06 519.434 225.147 519.434 210.451C519.434 195.756 507.517 183.842 492.817 183.842C478.117 183.842 466.2 195.756 466.2 210.451C466.2 225.147 478.117 237.06 492.817 237.06Z" fill="#2F2E41"/>
<path d="M507.636 361.442L509.687 371.112L547.975 367.81L544.949 353.537L507.636 361.442Z" fill="#A0616A"/>
<path d="M504.657 391.665L498.215 361.272L509.961 358.784L513.914 377.434C514.575 380.548 513.97 383.797 512.234 386.466C510.498 389.135 507.773 391.005 504.657 391.665Z" fill="#2F2E41"/>
<path d="M483.65 360.925L479.34 369.822L442.96 357.44L449.32 344.309L483.65 360.925Z" fill="#A0616A"/>
<path d="M473.719 374.947L482.03 357.788L492.837 363.019L479.294 390.982C476.428 389.595 474.23 387.126 473.185 384.119C472.139 381.112 472.331 377.812 473.719 374.947Z" fill="#2F2E41"/>
<path d="M411.977 343.353C413.222 343.585 414.503 343.541 415.73 343.224C416.956 342.908 418.098 342.326 419.075 341.52C420.053 340.715 420.841 339.705 421.386 338.561C421.931 337.418 422.218 336.169 422.227 334.903L482.215 279.612L467.318 268.077L413.005 326.087C410.876 326.212 408.867 327.113 407.358 328.62C405.85 330.127 404.946 332.135 404.82 334.263C404.693 336.392 405.351 338.492 406.67 340.168C407.989 341.843 409.878 342.976 411.977 343.353Z" fill="#A0616A"/>
<path d="M493.51 239.874C504.45 239.874 513.32 231.008 513.32 220.07C513.32 209.132 504.45 200.266 493.51 200.266C482.569 200.266 473.699 209.132 473.699 220.07C473.699 231.008 482.569 239.874 493.51 239.874Z" fill="#A0616A"/>
<path d="M450.069 286.246L455.715 269.313L484.751 245.93C484.751 245.93 499.27 247.542 517.821 237.06L523.874 237.233C524.906 237.262 525.92 237.5 526.857 237.933C527.794 238.366 528.633 238.984 529.324 239.751C530.014 240.518 530.542 241.416 530.874 242.393C531.207 243.37 531.338 244.404 531.259 245.432C529.734 265.177 526.785 316.023 535.162 333.416C535.162 333.416 490.801 344.705 470.636 321.321C470.636 321.321 478.702 312.451 470.636 296.325L460.151 299.55L450.069 286.246Z" fill="#6C63FF"/>
<path d="M473.056 321.321C473.056 321.321 420.629 316.483 414.983 331.803C409.337 347.124 415.789 354.381 425.468 357.606C435.147 360.831 458.538 364.863 458.538 364.863L469.023 351.962L496.447 353.574C496.447 353.574 527.004 371.292 535.453 390.241C537.265 394.342 540.156 397.875 543.817 400.465C547.478 403.054 551.772 404.603 556.244 404.947C563.018 405.418 569.039 402.861 569.039 392.278C569.039 368.088 535.162 333.416 535.162 333.416L473.056 321.321Z" fill="#2F2E41"/>
<path d="M433.131 345.108C433.131 345.108 446.842 341.076 468.62 351.558L433.131 345.108Z" fill="#2F2E41"/>
<path d="M473.747 207.44C481.484 212.162 490.206 215.035 499.234 215.836L496.548 212.618C498.504 213.341 500.562 213.749 502.646 213.828C503.69 213.858 504.726 213.644 505.671 213.201C506.617 212.759 507.445 212.101 508.09 211.281C508.617 210.429 508.93 209.462 509.003 208.463C509.075 207.464 508.905 206.463 508.506 205.544C507.687 203.711 506.413 202.118 504.804 200.917C501.953 198.662 498.588 197.147 495.009 196.508C491.43 195.869 487.749 196.124 484.293 197.252C481.922 197.96 479.799 199.322 478.166 201.181C477.364 202.117 476.807 203.238 476.544 204.443C476.282 205.647 476.323 206.899 476.664 208.084" fill="#2F2E41"/>
<path d="M495.323 186.796C489.074 180.462 481.513 175.574 473.172 172.476C467.817 170.493 461.989 169.268 456.391 170.394C450.793 171.521 445.499 175.392 443.937 180.883C442.66 185.373 443.979 190.207 445.96 194.434C447.942 198.66 450.588 202.58 452.191 206.964C453.826 211.437 454.318 216.248 453.622 220.96C452.925 225.672 451.063 230.135 448.203 233.945C445.344 237.754 441.578 240.79 437.247 242.775C432.917 244.761 428.159 245.634 423.405 245.315C428.905 246.052 433.975 248.636 439.352 250.011C444.728 251.387 451.073 251.293 455.069 247.443C459.296 243.369 459.381 236.745 459.176 230.879C458.872 222.159 458.569 213.438 458.265 204.718C458.11 200.271 457.978 195.681 459.582 191.53C461.186 187.379 464.999 183.744 469.45 183.782C472.824 183.811 475.809 185.854 478.515 187.868C481.22 189.883 484.084 192.033 487.444 192.333C490.804 192.632 494.641 190.146 494.39 186.783" fill="#2F2E41"/>
<path d="M354.086 194.325H7.25917C5.33458 194.322 3.48944 193.557 2.12855 192.197C0.76766 190.836 0.00215921 188.992 -7.62939e-06 187.068V7.25691C0.00222739 5.33293 0.767748 3.48841 2.12862 2.12796C3.4895 0.767501 5.3346 0.00220381 7.25917 -3.05176e-05H354.086C356.011 0.00213779 357.856 0.767413 359.217 2.12788C360.578 3.48835 361.343 5.33291 361.346 7.25691V187.068C361.343 188.992 360.578 190.836 359.217 192.197C357.856 193.557 356.011 194.323 354.086 194.325ZM7.25917 1.61262C5.76226 1.6143 4.32715 2.2095 3.26868 3.26765C2.21021 4.32579 1.61482 5.76046 1.61314 7.25691V187.068C1.61489 188.564 2.21031 189.999 3.26876 191.057C4.32722 192.115 5.76228 192.71 7.25917 192.712H354.086C355.583 192.71 357.018 192.115 358.077 191.057C359.135 189.999 359.731 188.564 359.732 187.068V7.25691C359.731 5.76049 359.135 4.32587 358.077 3.26773C357.018 2.2096 355.583 1.61437 354.086 1.61262H7.25917Z" fill="#3F3D56"/>
<path d="M112.92 85.8737H58.0734C56.1488 85.8715 54.3037 85.1062 52.9429 83.7457C51.582 82.3853 50.8165 80.5408 50.8142 78.6168V33.4625C50.8165 31.5385 51.582 29.694 52.9429 28.3336C54.3037 26.9731 56.1488 26.2078 58.0734 26.2056H112.92C114.845 26.2077 116.69 26.973 118.051 28.3335C119.412 29.694 120.177 31.5385 120.18 33.4625V78.6168C120.177 80.5408 119.412 82.3854 118.051 83.7458C116.69 85.1063 114.845 85.8716 112.92 85.8737ZM58.0734 27.8182C56.5765 27.8199 55.1414 28.4151 54.0829 29.4732C53.0244 30.5314 52.4291 31.9661 52.4274 33.4625V78.6168C52.4291 80.1132 53.0244 81.5479 54.0829 82.606C55.1414 83.6642 56.5765 84.2594 58.0734 84.2611H112.92C114.417 84.2593 115.852 83.6641 116.911 82.606C117.969 81.5478 118.565 80.1132 118.567 78.6168V33.4625C118.565 31.9661 117.969 30.5315 116.911 29.4733C115.852 28.4152 114.417 27.82 112.92 27.8182H58.0734Z" fill="#3F3D56"/>
<path d="M47.9912 102.807C46.6008 102.807 45.2672 103.359 44.284 104.342C43.3008 105.325 42.7485 106.658 42.7485 108.048C42.7485 109.438 43.3008 110.771 44.284 111.754C45.2672 112.737 46.6008 113.289 47.9912 113.289H313.354C314.745 113.289 316.078 112.737 317.062 111.754C318.045 110.771 318.597 109.438 318.597 108.048C318.597 106.658 318.045 105.325 317.062 104.342C316.078 103.359 314.745 102.807 313.354 102.807H47.9912Z" fill="#E6E6E6"/>
<path d="M137.521 47.9764C136.131 47.9764 134.797 48.5286 133.814 49.5115C132.831 50.4944 132.278 51.8275 132.278 53.2175C132.278 54.6075 132.831 55.9406 133.814 56.9235C134.797 57.9064 136.131 58.4586 137.521 58.4586H251.248C252.639 58.4586 253.972 57.9064 254.955 56.9235C255.938 55.9406 256.491 54.6075 256.491 53.2175C256.491 51.8275 255.938 50.4944 254.955 49.5115C253.972 48.5286 252.639 47.9764 251.248 47.9764H137.521Z" fill="#6C63FF"/>
<path d="M137.521 75.3915C136.131 75.3915 134.797 75.9437 133.814 76.9266C132.831 77.9095 132.278 79.2426 132.278 80.6326C132.278 82.0226 132.831 83.3557 133.814 84.3386C134.797 85.3215 136.131 85.8737 137.521 85.8737H310.935C312.325 85.8737 313.659 85.3215 314.642 84.3386C315.625 83.3557 316.177 82.0226 316.177 80.6326C316.177 79.2426 315.625 77.9095 314.642 76.9266C313.659 75.9437 312.325 75.3915 310.935 75.3915H137.521Z" fill="#6C63FF"/>
<path d="M47.9912 130.222C46.6008 130.222 45.2672 130.774 44.284 131.757C43.3008 132.74 42.7485 134.073 42.7485 135.463C42.7485 136.853 43.3008 138.186 44.284 139.169C45.2672 140.152 46.6008 140.704 47.9912 140.704H313.354C314.745 140.704 316.078 140.152 317.062 139.169C318.045 138.186 318.597 136.853 318.597 135.463C318.597 134.073 318.045 132.74 317.062 131.757C316.078 130.774 314.745 130.222 313.354 130.222H47.9912Z" fill="#E6E6E6"/>
<path d="M47.9912 157.637C46.6008 157.637 45.2672 158.189 44.284 159.172C43.3008 160.155 42.7485 161.488 42.7485 162.878C42.7485 164.268 43.3008 165.601 44.284 166.584C45.2672 167.567 46.6008 168.119 47.9912 168.119H313.354C314.745 168.119 316.078 167.567 317.062 166.584C318.045 165.601 318.597 164.268 318.597 162.878C318.597 161.488 318.045 160.155 317.062 159.172C316.078 158.189 314.745 157.637 313.354 157.637H47.9912Z" fill="#E6E6E6"/>
<path d="M84.8482 78.5649C97.2339 78.5649 107.274 68.5274 107.274 56.1456C107.274 43.7638 97.2339 33.7263 84.8482 33.7263C72.4626 33.7263 62.422 43.7638 62.422 56.1456C62.422 68.5274 72.4626 78.5649 84.8482 78.5649Z" fill="#CCCCCC"/>
<path d="M85.4315 80.936C94.6498 80.936 102.123 73.4654 102.123 64.2499C102.123 55.0344 94.6498 47.5638 85.4315 47.5638C76.2132 47.5638 68.7402 55.0344 68.7402 64.2499C68.7402 73.4654 76.2132 80.936 85.4315 80.936Z" fill="#E6E6E6"/>
<path d="M68.7806 53.6088C75.2991 57.5867 82.6478 60.0073 90.2549 60.6823L87.9913 57.9709C89.6394 58.5801 91.3737 58.9244 93.1297 58.991C94.0088 59.0164 94.8817 58.8355 95.6783 58.4628C96.4749 58.0901 97.1729 57.5359 97.7165 56.8447C98.1605 56.1269 98.4243 55.3125 98.4853 54.4708C98.5463 53.6291 98.4027 52.7852 98.0669 52.0109C97.3771 50.4667 96.3034 49.1246 94.9481 48.1123C92.5457 46.2125 89.7104 44.9364 86.695 44.3976C83.6796 43.8589 80.5778 44.0743 77.6658 45.0246C75.6684 45.6214 73.8795 46.7685 72.5041 48.3347C71.828 49.1236 71.3584 50.068 71.1375 51.0831C70.9166 52.0982 70.9512 53.1523 71.2384 54.1507" fill="#CCCCCC"/>
<path d="M502.683 318.409C503.13 318.412 503.575 318.451 504.015 318.524L531.403 289.378L528.61 280.073L542.107 274.025L550.484 294.496L511.081 325.829C511.293 327.535 510.981 329.264 510.185 330.788C509.39 332.311 508.149 333.557 506.629 334.358C505.108 335.16 503.379 335.479 501.673 335.275C499.966 335.07 498.362 334.351 497.074 333.213C495.786 332.075 494.875 330.572 494.462 328.904C494.049 327.235 494.155 325.481 494.763 323.874C495.372 322.267 496.456 320.883 497.871 319.907C499.286 318.931 500.964 318.408 502.684 318.409H502.683Z" fill="#A0616A"/>
<path d="M520.644 238.269C521.583 237.852 522.597 237.629 523.624 237.613C524.652 237.598 525.672 237.79 526.623 238.178C527.575 238.566 528.438 239.143 529.16 239.873C529.883 240.603 530.451 241.472 530.829 242.427L544.841 277.779L523.064 292.293L520.644 238.269Z" fill="#6C63FF"/>
<path d="M497.822 321.411C484.312 313.44 468.705 309.74 453.053 310.799C437.4 311.857 422.434 317.625 410.121 327.343C409.223 328.214 408.221 328.973 407.138 329.6C406.178 330.018 405.033 329.673 404.074 329.431C397.728 327.836 391.068 325.382 386.397 320.614C382.363 316.497 379.543 310.196 381.575 304.459C382.435 302.282 383.957 300.429 385.927 299.163C387.896 297.897 390.214 297.281 392.552 297.401C398.141 297.901 400.427 304.104 399.207 308.964C397.764 314.708 392.173 318.55 386.865 320.394C377.081 323.794 365.734 321.424 357.648 315.099C353.372 311.783 350.132 307.315 348.31 302.221C346.09 295.949 345.952 289.149 347.104 282.642C349.513 269.037 356.891 257.363 363.817 245.672C370.264 234.788 376.704 223.13 377.511 210.241C378.153 199.986 375.463 188.658 367.815 181.363C366.007 179.639 363.956 178.19 361.727 177.062C360.341 176.36 359.115 178.447 360.506 179.151C370.399 184.159 374.8 195.265 375.155 205.853C375.597 219.058 369.551 231.06 363.062 242.182C355.933 254.402 347.96 266.401 345.062 280.481C343.686 287.162 343.464 294.175 345.319 300.789C346.87 306.426 349.989 311.507 354.315 315.441C362.381 322.722 374.066 326.037 384.705 323.54C390.414 322.199 396.121 319.092 399.466 314.157C402.713 309.367 403.037 302.317 398.87 297.931C395.181 294.05 389.256 294.31 384.939 296.961C379.98 300.007 377.824 305.438 378.724 311.112C379.73 317.45 384.176 322.776 389.471 326.131C392.485 327.985 395.719 329.458 399.096 330.516C400.782 331.088 402.497 331.568 404.235 331.955C405.381 332.273 406.592 332.273 407.738 331.955C408.831 331.474 409.831 330.803 410.691 329.973C412.133 328.786 413.627 327.666 415.161 326.6C418.131 324.538 421.243 322.686 424.474 321.06C434.139 316.175 444.748 313.442 455.571 313.048C466.394 312.655 477.174 314.611 487.169 318.781C490.42 320.13 493.572 321.707 496.601 323.5C496.877 323.649 497.201 323.685 497.503 323.6C497.805 323.515 498.063 323.316 498.221 323.045C498.38 322.775 498.426 322.453 498.352 322.148C498.278 321.843 498.088 321.579 497.822 321.411V321.411Z" fill="#3F3D56"/>
</g>
<defs>
<clipPath id="clip0_4_417">
<rect width="621" height="405" fill="white"/>
</clipPath>
</defs>
</svg>
